<?xml version="1.0" encoding="UTF-8" standalone="no"?>
<svg xmlns="http://www.w3.org/2000/svg" xmlns:xlink="http://www.w3.org/1999/xlink" width="48" height="48">
  <defs>
    <path id="s" fill="#c4c5c2" stroke="#888a85" stroke-miterlimit="2" d="M280.5-445.5c-2.27083 0-4.10991 1.55028-4.71875 3.625-.69323-.36383-1.44451-.625-2.28125-.625-2.76 0-5.00001 2.23999-5 5 0 .57893.16252 1.1077.34375 1.625-1.37347.77074-2.34375 2.189-2.34375 3.875 0 2.484 2.016 4.50001 4.5 4.5h19c2.48399 0 4.5-2.016 4.5-4.5 0-1.686-.97028-3.10426-2.34375-3.875.18124-.51729.34375-1.04608.34375-1.625 0-2.76-2.24-4.99999-5-5-.83674 0-1.58802.26117-2.28125.625-.60884-2.07472-2.44792-3.625-4.71875-3.625z"/>
    <path id="u" fill="#c4c5c2" d="M283.99999925-440.49999663a3.50000075 3.50000075 0 1 1-7.0000015 0 3.50000075 3.50000075 0 1 1 7.0000015 0z"/>
    <path id="w" fill="#c4c5c2" d="M271-438h20v9h-20z"/>
    <path id="x" fill="#c4c5c2" d="M273.99989625-431.99984563a2.99999875 2.99999875 0 1 1-5.9999975 0 2.99999875 2.99999875 0 1 1 5.9999975 0zm17.000173-5.500251a3.50000075 3.50000075 0 1 1-7.0000015 0 3.50000075 3.50000075 0 1 1 7.0000015 0z"/>
    <path id="z" fill="#c4c5c2" d="M276.99999925-437.49999663a3.50000075 3.50000075 0 1 1-7.0000015 0 3.50000075 3.50000075 0 1 1 7.0000015 0z"/>
    <path id="B" fill="#c4c5c2" d="M280.46875-440.96875c-3.57938 0-6.46875 2.92063-6.46875 6.5 0 2.37068 1.34943 4.33779 3.25 5.46875h6.46875c1.90057-1.13096 3.25-3.12931 3.25-5.5 0-3.57938-2.92063-6.46875-6.5-6.46875z"/>
    <path id="E" fill="#888a85" fill-rule="evenodd" d="M292.9564-437.33396c-.00153 2.68456-3.26926 3.71395-3.26926 3.71395s2.34874-1.62595 2.33685-3.70501l.93241-.00894z"/>
  </defs>
  <defs>
    <linearGradient xlink:href="#a" id="M" x1="284.80219" x2="288.89954" y1="-441.23294" y2="-436.83109" gradientUnits="userSpaceOnUse"/>
    <linearGradient xlink:href="#b" id="L" x1="286.66589" x2="289.76562" y1="-439.48358" y2="-436.70703" gradientUnits="userSpaceOnUse"/>
    <linearGradient xlink:href="#c" id="K" x1="275.94193" x2="279.97546" y1="-437.10501" y2="-431.91833" gradientUnits="userSpaceOnUse"/>
    <linearGradient xlink:href="#a" id="J" x1="285.94086" x2="289.39124" y1="-439.939" y2="-436.4429" gradientUnits="userSpaceOnUse"/>
    <linearGradient xlink:href="#d" id="I" x1="286.51172" x2="289.85379" y1="-441.29074" y2="-436.14453" gradientUnits="userSpaceOnUse"/>
    <linearGradient xlink:href="#e" id="H" x1="287.5173" x2="289.67633" y1="-439.75281" y2="-436.32199" gradientUnits="userSpaceOnUse"/>
    <linearGradient xlink:href="#f" id="G" x1="271.0217" x2="285.02859" y1="-441.05182" y2="-431.96991" gradientUnits="userSpaceOnUse"/>
    <linearGradient xlink:href="#a" id="F" x1="284.80219" x2="288.89954" y1="-441.23294" y2="-436.83109" gradientUnits="userSpaceOnUse"/>
    <linearGradient id="b">
      <stop offset="0" stop-color="#fff"/>
      <stop offset="1" stop-color="#fff" stop-opacity="0"/>
    </linearGradient>
    <linearGradient xlink:href="#b" id="D" x1="286.66589" x2="289.76562" y1="-439.48358" y2="-436.70703" gradientUnits="userSpaceOnUse"/>
    <linearGradient id="c">
      <stop offset="0" stop-color="#fff"/>
      <stop offset="1" stop-color="#fff" stop-opacity="0"/>
    </linearGradient>
    <linearGradient xlink:href="#c" id="C" x1="275.94193" x2="279.97546" y1="-437.10501" y2="-431.91833" gradientUnits="userSpaceOnUse"/>
    <linearGradient id="a">
      <stop offset="0" stop-color="#fff"/>
      <stop offset="1" stop-color="#fff" stop-opacity="0"/>
    </linearGradient>
    <linearGradient xlink:href="#a" id="A" x1="285.94086" x2="289.39124" y1="-439.939" y2="-436.4429" gradientUnits="userSpaceOnUse"/>
    <linearGradient id="d">
      <stop offset="0" stop-color="#fff"/>
      <stop offset="1" stop-color="#fff" stop-opacity="0"/>
    </linearGradient>
    <linearGradient xlink:href="#d" id="y" x1="286.51172" x2="289.85379" y1="-441.29074" y2="-436.14453" gradientUnits="userSpaceOnUse"/>
    <linearGradient id="e">
      <stop offset="0" stop-color="#fff"/>
      <stop offset="1" stop-color="#fff" stop-opacity="0"/>
    </linearGradient>
    <linearGradient xlink:href="#e" id="v" x1="287.5173" x2="289.67633" y1="-439.75281" y2="-436.32199" gradientUnits="userSpaceOnUse"/>
    <linearGradient id="f">
      <stop offset="0" stop-color="#fff"/>
      <stop offset="1" stop-color="#fff" stop-opacity="0"/>
    </linearGradient>
    <linearGradient xlink:href="#f" id="t" x1="271.0217" x2="285.02859" y1="-441.05182" y2="-431.96991" gradientUnits="userSpaceOnUse"/>
    <linearGradient id="g">
      <stop offset="0" stop-color="#fff"/>
      <stop offset="1" stop-color="#fff" stop-opacity="0"/>
    </linearGradient>
    <linearGradient xlink:href="#g" id="r" x1="-156.29044" x2="-153.0981" y1="-100.53421" y2="-96.544556" gradientUnits="userSpaceOnUse"/>
    <linearGradient id="h">
      <stop offset="0" stop-color="#fff"/>
      <stop offset="1" stop-color="#fff" stop-opacity="0"/>
    </linearGradient>
    <linearGradient xlink:href="#h" id="q" x1="238.00478" x2="245.65462" y1="-388.47476" y2="-382.64539" gradientUnits="userSpaceOnUse"/>
    <linearGradient id="i">
      <stop offset="0" stop-color="#fff"/>
      <stop offset="1" stop-color="#fff" stop-opacity="0"/>
    </linearGradient>
    <linearGradient xlink:href="#i" id="p" x1="230.87598" x2="235.25652" y1="-390.43951" y2="-386.95901" gradientUnits="userSpaceOnUse"/>
    <linearGradient id="j">
      <stop offset="0" stop-color="#fff"/>
      <stop offset="1" stop-color="#fff" stop-opacity="0"/>
    </linearGradient>
    <linearGradient xlink:href="#j" id="o" x1="246.74042" x2="252.69785" y1="-391.31381" y2="-385.35165" gradientUnits="userSpaceOnUse"/>
    <linearGradient id="k">
      <stop offset="0" stop-color="#fff"/>
      <stop offset="1" stop-color="#fff" stop-opacity="0"/>
    </linearGradient>
    <linearGradient xlink:href="#k" id="n" x1="240.07379" x2="245.82706" y1="-393.4072" y2="-388.55029" gradientUnits="userSpaceOnUse"/>
    <linearGradient id="l">
      <stop offset="0" stop-color="#fff"/>
      <stop offset="1" stop-color="#fff" stop-opacity="0"/>
    </linearGradient>
    <linearGradient xlink:href="#l" id="m" x1="228.50261" x2="278.9151" y1="-392.30591" y2="-375.37952" gradientTransform="translate(69.00259 102)" gradientUnits="userSpaceOnUse"/>
  </defs>
  <g transform="translate(-287 298)">
    <path fill="#888a85" d="M311.50259-296c-2.77242 0-5.10823 1.57371-6.40625 3.8125-.94436-.47504-1.96519-.8125-3.09375-.8125-3.864 0-7 3.136-7 7s3.136 7 7 7c2.41967 0 4.43009-1.31932 5.6875-3.1875 1.1342.68962 2.38898 1.1875 3.8125 1.1875.91312 0 1.75295-.23202 2.5625-.53125.50994.86773 1.17912 1.57972 2 2.15625-.00724.13038-.0625.24282-.0625.375 0 3.864 3.13599 7 7 7 3.864 0 7-3.136 7-7 0-2.36969-1.25898-4.35834-3.0625-5.625.00724-.13038.0625-.24282.0625-.375 0-3.864-3.13599-7-7-7-.6227 0-1.17519.22219-1.75.375-1.19453-2.55884-3.74134-4.375-6.75-4.375z"/>
    <path fill="url(#m)" d="M311.50259-295c-2.78048 0-5.13451 1.76185-6.0625 4.21875-.98542-.70944-2.13143-1.21875-3.4375-1.21875-3.312 0-6 2.688-6 6s2.688 6 6 6c2.42775 0 4.49324-1.45558 5.4375-3.53125 1.12076.91756 2.50214 1.53125 4.0625 1.53125 1.07454 0 2.04428-.31896 2.9375-.78125.3984.99976 1.10114 1.78632 1.9375 2.4375-.18001.59562-.375 1.18965-.375 1.84375 0 3.588 2.912 6.5 6.5 6.5s6.5-2.912 6.5-6.5c0-2.36079-1.33433-4.33019-3.21875-5.46875.06259-.34723.21875-.66608.21875-1.03125 0-3.312-2.688-6-6-6-.85298 0-1.6713.17868-2.40625.5-.85377-2.59388-3.21524-4.49999-6.09375-4.5z"/>
    <path fill="#c4c5c2" d="M329.00252153-278.49989137a6.50000147 6.50000147 0 1 1-13.00000293 0 6.50000147 6.50000147 0 1 1 13.00000293 0z"/>
    <g transform="translate(69.00259 102)">
      <path fill="#c4c5c2" d="M247.99999547-390.49999938a5.50000293 5.50000293 0 1 1-11.00000586 0 5.50000293 5.50000293 0 1 1 11.00000586 0z"/>
      <path fill="url(#n)" d="M250.18322-389.30136a6.2313786 6.2313786 0 1 1-12.46276 0 6.2313786 6.2313786 0 1 1 12.46276 0z" transform="translate(27.18078 -46.89094) scale(.88263)"/>
    </g>
    <g transform="translate(69.00259 102)">
      <path fill="#c4c5c2" d="M256.00000931-386.5000005a5.50000372 5.50000372 0 1 1-11.00000743 0 5.50000372 5.50000372 0 1 1 11.00000743 0z"/>
      <path fill="url(#o)" d="M257.25429-385.7879a6.0325046 6.0325046 0 1 1-12.06501 0 6.0325046 6.0325046 0 1 1 12.06501 0z" transform="translate(21.45407 -34.76637) scale(.91173)"/>
    </g>
    <g transform="translate(69.00259 102)">
      <path fill="#c4c5c2" d="M238.00000597-388.00000713a5.00000275 5.00000275 0 1 1-10.0000055 0 5.00000275 5.00000275 0 1 1 10.0000055 0z"/>
      <path fill="url(#p)" d="M237.80885-387.88715a4.3752232 4.3752232 0 1 1-8.75045 0 4.3752232 4.3752232 0 1 1 8.75045 0z" transform="translate(-33.76771 55.27704) scale(1.1428)"/>
    </g>
    <g transform="translate(69.00259 102)">
      <path fill="#c4c5c2" d="M249.00000207-384.00000276a7.00000677 7.00000677 0 1 1-14.00001353 0 7.00000677 7.00000677 0 1 1 14.00001353 0z"/>
      <path fill="url(#q)" d="M248.54804-383.6666a6.7396116 6.7396116 0 1 1-13.47923 0 6.7396116 6.7396116 0 1 1 13.47923 0z" transform="translate(-9.150933 14.48993) scale(1.03864)"/>
    </g>
    <g transform="translate(446.828 -187.6162) scale(.93503)">
      <path fill="#c4c5c2" d="M-153.19460769-98.37500269a5.43041563 5.43041563 0 1 1-10.86083125 0 5.43041563 5.43041563 0 1 1 10.86083125 0z"/>
      <path fill="url(#r)" d="M-151.9375-96.9375a3.125 3.125 0 1 1-6.25 0 3.125 3.125 0 1 1 6.25 0z" transform="translate(110.8948 70.01402) scale(1.73773)"/>
    </g>
    <g transform="translate(38.00259 162)">
      <use xlink:href="#s" stroke-miterlimit="2"/>
      <path fill="url(#t)" d="M280.5-445c-2.18972 0-3.7236 1.33577-4.39555 3.84352-.66846-.34362-1.54759-.83335-2.35445-.83335-2.71651 0-4.75514 1.93882-4.75513 4.54554 0 .54677.26721 1.33344.44196 1.82201-1.32443.72795-2.43683 1.8905-2.43683 3.37255 0 2.34605 1.54617 4.25009 4.33928 4.25009h18.32144c2.77101 0 4.33928-1.90404 4.33928-4.25009 0-1.59237-1.1124-2.66669-2.43683-3.39464.17476-.48856.46407-1.25316.46407-1.79992 0-2.60671-2.11581-4.56763-4.77723-4.56764-.80687 0-1.64181.48974-2.31027.83336C284.29089-443.60011 282.68973-445 280.5-445z"/>
      <use xlink:href="#u"/>
      <path fill="url(#v)" d="M291.6875-437.59375a3.3125 3.3125 0 1 1-6.625 0 3.3125 3.3125 0 1 1 6.625 0z" transform="translate(-24.19818 21.86331) scale(1.0566)"/>
      <use xlink:href="#w"/>
      <use xlink:href="#x"/>
      <path fill="url(#y)" d="M291.6875-437.59375a3.3125 3.3125 0 1 1-6.625 0 3.3125 3.3125 0 1 1 6.625 0z" transform="translate(-17.19818 24.86331) scale(1.0566)"/>
      <use xlink:href="#z"/>
      <path fill="url(#A)" d="M291.6875-437.59375a3.3125 3.3125 0 1 1-6.625 0 3.3125 3.3125 0 1 1 6.625 0z" transform="translate(-31.19818 24.86331) scale(1.0566)"/>
      <g transform="translate(-1)">
        <use xlink:href="#B"/>
        <path fill="url(#C)" d="M280.5-441c-3.588 0-6.5 2.91201-6.5 6.5 0 2.3764 1.34485 4.36632 3.25 5.5h6.5c1.90515-1.13368 3.25-3.1236 3.25-5.5 0-3.588-2.912-6.49999-6.5-6.5z"/>
      </g>
      <path fill="url(#D)" d="M291.6875-437.59375a3.3125 3.3125 0 1 1-6.625 0 3.3125 3.3125 0 1 1 6.625 0z" transform="translate(9.830296 -35.68884) scale(.90566)"/>
      <use xlink:href="#E" fill-rule="evenodd"/>
      <g transform="translate(-28.57139 67.00008) scale(1.14286)">
        <use xlink:href="#z"/>
        <path fill="url(#F)" d="M291.6875-437.59375a3.3125 3.3125 0 1 1-6.625 0 3.3125 3.3125 0 1 1 6.625 0z" transform="translate(-31.19818 24.86331) scale(1.0566)"/>
      </g>
    </g>
    <g transform="translate(23 158)">
      <use xlink:href="#s" stroke-miterlimit="2"/>
      <path fill="url(#G)" d="M280.5-445c-2.18972 0-3.7236 1.33577-4.39555 3.84352-.66846-.34362-1.54759-.83335-2.35445-.83335-2.71651 0-4.75514 1.93882-4.75513 4.54554 0 .54677.26721 1.33344.44196 1.82201-1.32443.72795-2.43683 1.8905-2.43683 3.37255 0 2.34605 1.54617 4.25009 4.33928 4.25009h18.32144c2.77101 0 4.33928-1.90404 4.33928-4.25009 0-1.59237-1.1124-2.66669-2.43683-3.39464.17476-.48856.46407-1.25316.46407-1.79992 0-2.60671-2.11581-4.56763-4.77723-4.56764-.80687 0-1.64181.48974-2.31027.83336C284.29089-443.60011 282.68973-445 280.5-445z"/>
      <use xlink:href="#u"/>
      <path fill="url(#H)" d="M291.6875-437.59375a3.3125 3.3125 0 1 1-6.625 0 3.3125 3.3125 0 1 1 6.625 0z" transform="translate(-24.19818 21.86331) scale(1.0566)"/>
      <use xlink:href="#w"/>
      <use xlink:href="#x"/>
      <path fill="url(#I)" d="M291.6875-437.59375a3.3125 3.3125 0 1 1-6.625 0 3.3125 3.3125 0 1 1 6.625 0z" transform="translate(-17.19818 24.86331) scale(1.0566)"/>
      <use xlink:href="#z"/>
      <path fill="url(#J)" d="M291.6875-437.59375a3.3125 3.3125 0 1 1-6.625 0 3.3125 3.3125 0 1 1 6.625 0z" transform="translate(-31.19818 24.86331) scale(1.0566)"/>
      <g transform="translate(-1)">
        <use xlink:href="#B"/>
        <path fill="url(#K)" d="M280.5-441c-3.588 0-6.5 2.91201-6.5 6.5 0 2.3764 1.34485 4.36632 3.25 5.5h6.5c1.90515-1.13368 3.25-3.1236 3.25-5.5 0-3.588-2.912-6.49999-6.5-6.5z"/>
      </g>
      <path fill="url(#L)" d="M291.6875-437.59375a3.3125 3.3125 0 1 1-6.625 0 3.3125 3.3125 0 1 1 6.625 0z" transform="translate(9.830296 -35.68884) scale(.90566)"/>
      <use xlink:href="#E" fill-rule="evenodd"/>
      <g transform="translate(-28.57139 67.00008) scale(1.14286)">
        <use xlink:href="#z"/>
        <path fill="url(#M)" d="M291.6875-437.59375a3.3125 3.3125 0 1 1-6.625 0 3.3125 3.3125 0 1 1 6.625 0z" transform="translate(-31.19818 24.86331) scale(1.0566)"/>
      </g>
    </g>
  </g>
</svg>